<svg width="19" height="19" viewBox="0 0 19 19" fill="none" xmlns="http://www.w3.org/2000/svg">
<path d="M17.375 10.1912C17.2374 11.6807 16.6784 13.1001 15.7635 14.2834C14.8486 15.4668 13.6156 16.3651 12.2088 16.8732C10.802 17.3814 9.27952 17.4784 7.8196 17.1528C6.35968 16.8273 5.02266 16.0927 3.96498 15.0351C2.90731 13.9774 2.17273 12.6404 1.8472 11.1804C1.52168 9.72051 1.61866 8.19807 2.12681 6.79126C2.63496 5.38445 3.53326 4.15145 4.7166 3.23653C5.89993 2.32162 7.31936 1.76264 8.80879 1.625C7.93677 2.80473 7.51715 4.25827 7.62625 5.72124C7.73535 7.18421 8.36591 8.55943 9.40326 9.59677C10.4406 10.6341 11.8158 11.2647 13.2788 11.3738C14.7418 11.4829 16.1953 11.0633 17.375 10.1912V10.1912Z" stroke="#5F6775" stroke-width="1.5" stroke-linecap="round" stroke-linejoin="round"/>
</svg>
